<mxfile host="Electron" modified="2025-06-15T15:24:24.522Z" agent="Mozilla/5.0 (Windows NT 10.0; Win64; x64) AppleWebKit/537.36 (KHTML, like Gecko) draw.io/24.6.4 Chrome/124.0.6367.207 Electron/30.0.6 Safari/537.36" etag="SnZya0VHGj_1AvtjkJrl" version="24.6.4" type="device">
  <diagram name="第 1 页" id="yL7OVadsMnhw8x5RupoX">
    <mxGraphModel dx="1036" dy="624" grid="1" gridSize="10" guides="1" tooltips="1" connect="1" arrows="1" fold="1" page="1" pageScale="1" pageWidth="1169" pageHeight="827" math="0" shadow="0">
      <root>
        <mxCell id="0" />
        <mxCell id="1" parent="0" />
        <mxCell id="a_CQL7_LLe-4BzA37rm--1" value="root" style="ellipse;whiteSpace=wrap;html=1;aspect=fixed;" vertex="1" parent="1">
          <mxGeometry x="370" y="60" width="40" height="40" as="geometry" />
        </mxCell>
        <mxCell id="a_CQL7_LLe-4BzA37rm--2" value="p" style="ellipse;whiteSpace=wrap;html=1;aspect=fixed;" vertex="1" parent="1">
          <mxGeometry x="290" y="140" width="30" height="30" as="geometry" />
        </mxCell>
        <mxCell id="a_CQL7_LLe-4BzA37rm--3" value="" style="endArrow=classic;html=1;rounded=0;entryX=0.733;entryY=-0.107;entryDx=0;entryDy=0;entryPerimeter=0;" edge="1" parent="1" source="a_CQL7_LLe-4BzA37rm--1" target="a_CQL7_LLe-4BzA37rm--2">
          <mxGeometry width="50" height="50" relative="1" as="geometry">
            <mxPoint x="370" y="200" as="sourcePoint" />
            <mxPoint x="420" y="150" as="targetPoint" />
          </mxGeometry>
        </mxCell>
        <mxCell id="a_CQL7_LLe-4BzA37rm--5" value="h" style="ellipse;whiteSpace=wrap;html=1;aspect=fixed;" vertex="1" parent="1">
          <mxGeometry x="270" y="200" width="30" height="30" as="geometry" />
        </mxCell>
        <mxCell id="a_CQL7_LLe-4BzA37rm--6" value="p" style="ellipse;whiteSpace=wrap;html=1;aspect=fixed;" vertex="1" parent="1">
          <mxGeometry x="230" y="270" width="30" height="30" as="geometry" />
        </mxCell>
        <mxCell id="a_CQL7_LLe-4BzA37rm--7" value="" style="endArrow=classic;html=1;rounded=0;exitX=0;exitY=1;exitDx=0;exitDy=0;entryX=0.5;entryY=0;entryDx=0;entryDy=0;" edge="1" parent="1" source="a_CQL7_LLe-4BzA37rm--2" target="a_CQL7_LLe-4BzA37rm--5">
          <mxGeometry width="50" height="50" relative="1" as="geometry">
            <mxPoint x="340" y="270" as="sourcePoint" />
            <mxPoint x="390" y="220" as="targetPoint" />
          </mxGeometry>
        </mxCell>
        <mxCell id="a_CQL7_LLe-4BzA37rm--8" value="" style="endArrow=classic;html=1;rounded=0;exitX=0;exitY=1;exitDx=0;exitDy=0;entryX=0.787;entryY=-0.12;entryDx=0;entryDy=0;entryPerimeter=0;" edge="1" parent="1" source="a_CQL7_LLe-4BzA37rm--5" target="a_CQL7_LLe-4BzA37rm--6">
          <mxGeometry width="50" height="50" relative="1" as="geometry">
            <mxPoint x="310" y="360" as="sourcePoint" />
            <mxPoint x="360" y="310" as="targetPoint" />
          </mxGeometry>
        </mxCell>
        <mxCell id="a_CQL7_LLe-4BzA37rm--9" value="y" style="ellipse;whiteSpace=wrap;html=1;aspect=fixed;" vertex="1" parent="1">
          <mxGeometry x="350" y="180" width="30" height="30" as="geometry" />
        </mxCell>
        <mxCell id="a_CQL7_LLe-4BzA37rm--10" value="t" style="ellipse;whiteSpace=wrap;html=1;aspect=fixed;" vertex="1" parent="1">
          <mxGeometry x="340" y="240" width="30" height="30" as="geometry" />
        </mxCell>
        <mxCell id="a_CQL7_LLe-4BzA37rm--12" value="h" style="ellipse;whiteSpace=wrap;html=1;aspect=fixed;" vertex="1" parent="1">
          <mxGeometry x="320" y="310" width="30" height="30" as="geometry" />
        </mxCell>
        <mxCell id="a_CQL7_LLe-4BzA37rm--13" value="o" style="ellipse;whiteSpace=wrap;html=1;aspect=fixed;" vertex="1" parent="1">
          <mxGeometry x="310" y="370" width="30" height="30" as="geometry" />
        </mxCell>
        <mxCell id="a_CQL7_LLe-4BzA37rm--14" value="n" style="ellipse;whiteSpace=wrap;html=1;aspect=fixed;" vertex="1" parent="1">
          <mxGeometry x="290" y="430" width="30" height="30" as="geometry" />
        </mxCell>
        <mxCell id="a_CQL7_LLe-4BzA37rm--15" value="" style="endArrow=classic;html=1;rounded=0;exitX=1;exitY=1;exitDx=0;exitDy=0;entryX=-0.147;entryY=0.293;entryDx=0;entryDy=0;entryPerimeter=0;" edge="1" parent="1" source="a_CQL7_LLe-4BzA37rm--2" target="a_CQL7_LLe-4BzA37rm--9">
          <mxGeometry width="50" height="50" relative="1" as="geometry">
            <mxPoint x="350" y="180" as="sourcePoint" />
            <mxPoint x="400" y="130" as="targetPoint" />
          </mxGeometry>
        </mxCell>
        <mxCell id="a_CQL7_LLe-4BzA37rm--16" value="" style="endArrow=classic;html=1;rounded=0;exitX=0.5;exitY=1;exitDx=0;exitDy=0;entryX=0.5;entryY=0;entryDx=0;entryDy=0;" edge="1" parent="1" source="a_CQL7_LLe-4BzA37rm--9" target="a_CQL7_LLe-4BzA37rm--10">
          <mxGeometry width="50" height="50" relative="1" as="geometry">
            <mxPoint x="410" y="270" as="sourcePoint" />
            <mxPoint x="460" y="220" as="targetPoint" />
          </mxGeometry>
        </mxCell>
        <mxCell id="a_CQL7_LLe-4BzA37rm--17" value="" style="endArrow=classic;html=1;rounded=0;exitX=0.5;exitY=1;exitDx=0;exitDy=0;entryX=0.8;entryY=-0.067;entryDx=0;entryDy=0;entryPerimeter=0;" edge="1" parent="1" source="a_CQL7_LLe-4BzA37rm--10" target="a_CQL7_LLe-4BzA37rm--12">
          <mxGeometry width="50" height="50" relative="1" as="geometry">
            <mxPoint x="420" y="320" as="sourcePoint" />
            <mxPoint x="470" y="270" as="targetPoint" />
          </mxGeometry>
        </mxCell>
        <mxCell id="a_CQL7_LLe-4BzA37rm--18" value="" style="endArrow=classic;html=1;rounded=0;exitX=0.5;exitY=1;exitDx=0;exitDy=0;entryX=0.5;entryY=0;entryDx=0;entryDy=0;" edge="1" parent="1" source="a_CQL7_LLe-4BzA37rm--12" target="a_CQL7_LLe-4BzA37rm--13">
          <mxGeometry width="50" height="50" relative="1" as="geometry">
            <mxPoint x="440" y="370" as="sourcePoint" />
            <mxPoint x="490" y="320" as="targetPoint" />
          </mxGeometry>
        </mxCell>
        <mxCell id="a_CQL7_LLe-4BzA37rm--19" value="" style="endArrow=classic;html=1;rounded=0;exitX=0.5;exitY=1;exitDx=0;exitDy=0;entryX=0.5;entryY=0;entryDx=0;entryDy=0;" edge="1" parent="1" source="a_CQL7_LLe-4BzA37rm--13" target="a_CQL7_LLe-4BzA37rm--14">
          <mxGeometry width="50" height="50" relative="1" as="geometry">
            <mxPoint x="360" y="450" as="sourcePoint" />
            <mxPoint x="410" y="400" as="targetPoint" />
          </mxGeometry>
        </mxCell>
        <mxCell id="a_CQL7_LLe-4BzA37rm--20" value="j" style="ellipse;whiteSpace=wrap;html=1;aspect=fixed;" vertex="1" parent="1">
          <mxGeometry x="440" y="120" width="30" height="30" as="geometry" />
        </mxCell>
        <mxCell id="a_CQL7_LLe-4BzA37rm--21" value="a" style="ellipse;whiteSpace=wrap;html=1;aspect=fixed;" vertex="1" parent="1">
          <mxGeometry x="530" y="300" width="30" height="30" as="geometry" />
        </mxCell>
        <mxCell id="a_CQL7_LLe-4BzA37rm--22" value="v" style="ellipse;whiteSpace=wrap;html=1;aspect=fixed;" vertex="1" parent="1">
          <mxGeometry x="510" y="240" width="30" height="30" as="geometry" />
        </mxCell>
        <mxCell id="a_CQL7_LLe-4BzA37rm--23" value="a" style="ellipse;whiteSpace=wrap;html=1;aspect=fixed;" vertex="1" parent="1">
          <mxGeometry x="480" y="180" width="30" height="30" as="geometry" />
        </mxCell>
        <mxCell id="a_CQL7_LLe-4BzA37rm--24" value="" style="endArrow=classic;html=1;rounded=0;exitX=1;exitY=1;exitDx=0;exitDy=0;entryX=0;entryY=0;entryDx=0;entryDy=0;" edge="1" parent="1" source="a_CQL7_LLe-4BzA37rm--1" target="a_CQL7_LLe-4BzA37rm--20">
          <mxGeometry width="50" height="50" relative="1" as="geometry">
            <mxPoint x="530" y="120" as="sourcePoint" />
            <mxPoint x="580" y="70" as="targetPoint" />
          </mxGeometry>
        </mxCell>
        <mxCell id="a_CQL7_LLe-4BzA37rm--25" value="" style="endArrow=classic;html=1;rounded=0;exitX=1;exitY=1;exitDx=0;exitDy=0;entryX=0;entryY=0;entryDx=0;entryDy=0;" edge="1" parent="1" source="a_CQL7_LLe-4BzA37rm--20" target="a_CQL7_LLe-4BzA37rm--23">
          <mxGeometry width="50" height="50" relative="1" as="geometry">
            <mxPoint x="540" y="190" as="sourcePoint" />
            <mxPoint x="590" y="140" as="targetPoint" />
          </mxGeometry>
        </mxCell>
        <mxCell id="a_CQL7_LLe-4BzA37rm--26" value="" style="endArrow=classic;html=1;rounded=0;exitX=1;exitY=1;exitDx=0;exitDy=0;entryX=0;entryY=0;entryDx=0;entryDy=0;" edge="1" parent="1" source="a_CQL7_LLe-4BzA37rm--23" target="a_CQL7_LLe-4BzA37rm--22">
          <mxGeometry width="50" height="50" relative="1" as="geometry">
            <mxPoint x="560" y="220" as="sourcePoint" />
            <mxPoint x="610" y="170" as="targetPoint" />
          </mxGeometry>
        </mxCell>
        <mxCell id="a_CQL7_LLe-4BzA37rm--28" value="" style="endArrow=classic;html=1;rounded=0;exitX=1;exitY=1;exitDx=0;exitDy=0;entryX=0;entryY=0;entryDx=0;entryDy=0;" edge="1" parent="1" source="a_CQL7_LLe-4BzA37rm--22" target="a_CQL7_LLe-4BzA37rm--21">
          <mxGeometry width="50" height="50" relative="1" as="geometry">
            <mxPoint x="570" y="280" as="sourcePoint" />
            <mxPoint x="620" y="230" as="targetPoint" />
          </mxGeometry>
        </mxCell>
      </root>
    </mxGraphModel>
  </diagram>
</mxfile>
